# xmcd
#
# Track frame offsets:
#	150
#	16670
#	30158
#	44248
#	56345
#	70883
#	85318
#	100413
#	116425
#	129458
#	144428
#	158043
#	172595
#	185363
#	200333
#	213688
#	231395
#	250440
#	265533
#	277988
#
# Disc length: 3922
#
# Revision: 1
# Processed by: cddbd v1.5.1PL0 Copyright (c) Steve Scherf et al.
# Submitted via: ExactAudioCopy v0.90b4
# Normalized: r0:DSETVAR1,TDELIM( - )
#
DISCID=100f5014
DTITLE=Various Artist - Heavy Metal Arista Style 1990-1993
DYEAR=1993
DGENRE=Country
TTITLE0=Alan Jackson - Here In The Real World
TTITLE1=Alan Jackson - Wanted
TTITLE2=Alan Jackson - Neon Rainbow
TTITLE3=Rob Crosby - Love Will Bring Her Around
TTITLE4=Pam Tillis - Don't Tell Me What To Do
TTITLE5=Alan Jackson - I'd Love You All Over Again
TTITLE6=Diamond Rio - Meet Me In The Middle
TTITLE7=Pam Tillis - One Of Those Things
TTITLE8=Alan Jackson - Don't Rock The Jukebox
TTITLE9=Rob Crosby - She's A Natural
TTITLE10=Brooks and Dunn - Brand New Man
TTITLE11=Diamond Rio - Mirror Mirror
TTITLE12=Pam Tillis - Put Yourself In My Place
TTITLE13=Alan Jackson - Someday
TTITLE14=Brooks and Dunn - My Next Broken Heart
TTITLE15=Steve Wariner - Leave Him Out Of This
TTITLE16=Diamond Rio - Mama, Don't Forget To Pray For Me
TTITLE17=Pam Tillis - Maybe It Was Memphis
TTITLE18=Alan Jackson - Dallas
TTITLE19=Steve Wariner - The Tips Of My Fingers
EXTD=
EXTT0=
EXTT1=
EXTT2=
EXTT3=
EXTT4=
EXTT5=
EXTT6=
EXTT7=
EXTT8=
EXTT9=
EXTT10=
EXTT11=
EXTT12=
EXTT13=
EXTT14=
EXTT15=
EXTT16=
EXTT17=
EXTT18=
EXTT19=
PLAYORDER=
